<svg xmlns="http://www.w3.org/2000/svg" viewBox="0 0 36 24">
  <rect width="36" height="24" rx="3" fill="#fff"/>
  <path fill="#c60c30" d="M18 6a6 6 0 0 1 0 12 3 3 0 0 1 0-6 3 3 0 0 0 0-6z"/>
  <path fill="#003478" d="M18 18a6 6 0 0 1 0-12 3 3 0 0 1 0 6 3 3 0 0 0 0 6z"/>
  <g stroke="#111" stroke-width="1.1" stroke-linecap="round">
    <path d="M7 5.2l4.2 2.4M8.2 3.2l4.2 2.4M5.8 7.2l4.2 2.4"/>
    <path d="M24.8 16.4l4.2 2.4M26 14.4l4.2 2.4M23.6 18.4l4.2 2.4"/>
    <path d="M29 5.2l-4.2 2.4M27.8 3.2l-4.2 2.4M30.2 7.2L26 9.6"/>
    <path d="M11.2 16.4L7 18.8M10 14.4l-4.2 2.4M12.4 18.4L8.2 20.8"/>
  </g>
</svg>
